<?xml version="1.0" encoding="utf-8"?>

<!DOCTYPE svg PUBLIC "-//W3C//DTD SVG 1.1//EN" "http://www.w3.org/Graphics/SVG/1.1/DTD/svg11.dtd">
<!-- Uploaded to: SVG Repo, www.svgrepo.com, Generator: SVG Repo Mixer Tools -->
<svg height="800px" width="800px" version="1.1" id="_x32_" xmlns="http://www.w3.org/2000/svg" xmlns:xlink="http://www.w3.org/1999/xlink" 
	 viewBox="0 0 512 512"  xml:space="preserve">
<style type="text/css">
	.st0{fill:#000000;}
</style>
<g>
	<path class="st0" d="M480.322,32.283c-42.195-42.186-229.387-63.618-370.523,77.518C-31.337,250.929-10.895,437.14,31.299,479.326
		c42.195,42.203,230.385,64.624,371.513-76.512C543.957,261.687,522.524,74.487,480.322,32.283z M57.763,452.863
		c-11.07-11.07-23.931-55.286-19.031-112.899l132.969,132.961C110.484,477.874,67.431,462.523,57.763,452.863z M376.349,376.351
		c-51.657,51.648-106.985,76.536-153.51,88.151L47.385,289.049c12.654-49.19,39.25-103.148,88.886-152.776
		c49.627-49.644,103.701-76.116,153.048-88.621l175.642,175.642C452.456,272.65,425.984,326.715,376.349,376.351z M473.442,172.207
		L340.398,39.172c57.844-4.677,102.282,8.422,113.452,19.583C465.019,69.925,478.119,114.372,473.442,172.207z"/>
	<polygon class="st0" points="313.613,183.879 280.913,216.579 252.94,188.607 237.811,203.735 265.784,231.701 233.084,264.401 
		205.111,236.436 189.99,251.556 217.963,279.53 185.263,312.23 157.282,284.256 142.161,299.377 213.236,370.453 228.357,355.323 
		200.384,327.359 233.084,294.651 261.057,322.623 276.186,307.503 248.213,279.53 280.913,246.83 308.886,274.803 324.007,259.682 
		296.034,231.701 328.742,199.001 356.715,226.974 371.836,211.845 300.769,140.778 285.648,155.898 	"/>
</g>
</svg>