<?xml version="1.0" encoding="iso-8859-1"?>
<!-- Uploaded to: SVG Repo, www.svgrepo.com, Generator: SVG Repo Mixer Tools -->
<!DOCTYPE svg PUBLIC "-//W3C//DTD SVG 1.1//EN" "http://www.w3.org/Graphics/SVG/1.1/DTD/svg11.dtd">
<svg fill="#000000" version="1.1" id="Capa_1" xmlns="http://www.w3.org/2000/svg" xmlns:xlink="http://www.w3.org/1999/xlink" 
	 width="800px" height="800px" viewBox="0 0 524.757 524.756"
	 xml:space="preserve">
<g>
	<g>
		<path d="M454.874,147.16c-38.518,0-69.873-31.346-69.873-69.873s31.346-69.873,69.873-69.873s69.883,31.346,69.883,69.873
			S493.401,147.16,454.874,147.16z M454.874,21.7c-30.647,0-55.577,24.93-55.577,55.578c0,30.647,24.92,55.577,55.577,55.577
			s55.577-24.93,55.577-55.577C510.451,46.629,485.531,21.7,454.874,21.7z"/>
	</g>
	<g>
		<path d="M454.874,120.949c-24.078,0-43.662-19.594-43.662-43.672c0-24.079,19.593-43.672,43.662-43.672
			c24.088,0,43.672,19.594,43.672,43.672C498.546,101.355,478.962,120.949,454.874,120.949z M454.874,47.901
			c-16.189,0-29.376,13.177-29.376,29.376c0,16.199,13.187,29.376,29.376,29.376c16.199,0,29.386-13.177,29.386-29.376
			C484.26,61.078,471.073,47.901,454.874,47.901z"/>
	</g>
	<g>
		<circle cx="454.884" cy="78.081" r="15.883"/>
	</g>
	<g>
		<path d="M452.234,80.433c-0.038-0.86-0.325-1.664-0.812-2.352c2.161-0.976,3.548-2.936,3.452-5.154
			c-0.134-3.041-3.739-5.374-7.918-5.192l-78.891,7.153c-1.415,0.057-2.467-0.019-2.993-0.058l-0.746-0.526
			c-1.424-1.023-4.369-1.138-6.578-1.042l-29.835,1.31c-3.5,0.134-7.976,2.171-10.386,4.724l-2.026,2.151
			c-1.731,1.827-5.116,4.293-7.393,5.394l-17.212,8.329c-2.047,1.023-5.126,2.592-6.856,2.582c-2.324-0.038-5.078-1.042-7.984-2.955
			c-2.697-1.797-7.335-3.251-10.949-2.648l-65.13,10.997c-6.904,1.176-11.838,7.765-11.025,14.736l3.232,27.358
			c0.373,3.194,1.846,5.843,4.141,7.487c2.802,1.999,6.455,2.276,10.041,0.746l84.273-35.84l2.859,4.781
			c0.583,0.976,1.339,1.798,2.219,2.41c2.371,1.702,5.584,2.075,8.329,0.727l16.332-7.995c1.32-0.65,2.362-1.645,3.07-2.84
			c1.711,0.545,3.528,0.822,5.384,0.746c3.557-0.153,6.875-1.473,9.342-3.739c2.572-2.372,3.94-5.47,3.787-8.721
			c-0.028-0.545-0.153-1.062-0.277-1.587l22.348-3.156l80.803-12.718C449.376,85.214,452.35,83.158,452.234,80.433z M318.13,112.945
			l-16.332,7.994c-1.349,0.669-3.127,0.153-3.911-1.138l-2.496-4.188l19.899-8.482c0.679,1.96,1.932,3.72,3.653,5.116
			C318.732,112.534,318.465,112.792,318.13,112.945z M336.844,103.23c0.077,1.721-0.669,3.385-2.132,4.705
			c-1.578,1.454-3.739,2.295-6.102,2.41c-1.615,0.058-3.098-0.373-4.446-0.995c-0.172-0.708-0.325-1.415-0.717-2.075l-1.53-2.611
			c1.798-0.526,3.682-0.975,5.097-1.176l9.648-1.367C336.768,102.484,336.834,102.857,336.844,103.23z"/>
	</g>
	<g>
		<circle cx="112.881" cy="47.318" r="46.579"/>
	</g>
	<g>
		<path d="M138.834,314.264H86.91c-15.836,0-28.688-12.852-28.688-28.688V145.869c0-15.835,12.852-28.688,28.688-28.688h51.924
			c15.835,0,28.688,12.852,28.688,28.688v139.699C167.521,301.413,154.679,314.264,138.834,314.264z"/>
	</g>
	<g>
		<path d="M28.722,524.018c-2.524,0-5.078-0.335-7.622-1.042c-15.281-4.188-24.26-19.967-20.071-35.248l58.054-211.513
			c4.188-15.3,19.995-24.279,35.257-20.081c15.281,4.198,24.27,19.985,20.072,35.267L56.367,502.914
			C52.867,515.651,41.306,524.018,28.722,524.018z"/>
	</g>
	<g>
		<path d="M192.833,524.018c-12.804,0-24.471-8.645-27.779-21.611l-53.933-211.513c-3.911-15.348,5.365-30.982,20.712-34.884
			c15.357-3.921,30.973,5.364,34.884,20.712l53.932,211.513c3.911,15.349-5.364,30.964-20.712,34.885
			C197.567,523.721,195.176,524.018,192.833,524.018z"/>
	</g>
	<g>
		<path d="M127.33,183.153c-13.665,0-25.761-9.802-28.219-23.734c-2.745-15.596,7.679-30.485,23.285-33.229l168.347-29.625
			c15.577-2.668,30.476,7.698,33.229,23.294c2.744,15.616-7.688,30.485-23.294,33.23l-168.348,29.625
			C130.658,183,128.984,183.153,127.33,183.153z"/>
	</g>
</g>
</svg>