<?xml version="1.0" encoding="iso-8859-1"?>
<!-- Uploaded to: SVG Repo, www.svgrepo.com, Generator: SVG Repo Mixer Tools -->
<!DOCTYPE svg PUBLIC "-//W3C//DTD SVG 1.1//EN" "http://www.w3.org/Graphics/SVG/1.1/DTD/svg11.dtd">
<svg fill="#000000" height="800px" width="800px" version="1.1" id="Capa_1" xmlns="http://www.w3.org/2000/svg" xmlns:xlink="http://www.w3.org/1999/xlink" 
	 viewBox="0 0 252.983 252.983" xml:space="preserve">
<g>
	<path d="M240.129,217.85c-3.583-2.073-8.172-0.85-10.248,2.736c-6.208,10.731-17.756,17.397-30.137,17.397
		c-12.379,0-23.927-6.667-30.135-17.397c-1.341-2.317-3.815-3.744-6.492-3.744c-2.678,0-5.151,1.427-6.492,3.745
		c-6.207,10.731-17.754,17.397-30.135,17.397c-12.38,0-23.926-6.666-30.133-17.397c-1.341-2.317-3.814-3.745-6.492-3.745
		c-2.677,0-5.151,1.427-6.492,3.744c-6.208,10.731-17.756,17.397-30.137,17.397c-12.379,0-23.927-6.667-30.135-17.397
		c-2.075-3.585-6.662-4.81-10.248-2.736c-3.585,2.074-4.811,6.663-2.736,10.248c8.882,15.35,25.403,24.886,43.119,24.886
		c14.022,0,27.299-5.975,36.628-16.077c9.329,10.103,22.604,16.077,36.626,16.077c14.024,0,27.299-5.975,36.628-16.077
		c9.329,10.103,22.604,16.077,36.626,16.077c17.717,0,34.239-9.536,43.121-24.886C244.94,224.513,243.714,219.924,240.129,217.85z"
		/>
	<path d="M104.525,105.236c0,18.327,14.91,33.237,33.237,33.237c18.326,0,33.236-14.91,33.236-33.237
		c0-18.327-14.91-33.236-33.236-33.236C119.435,72,104.525,86.91,104.525,105.236z M137.762,87c10.056,0,18.236,8.181,18.236,18.236
		c0,10.056-8.181,18.237-18.236,18.237c-10.056,0-18.237-8.181-18.237-18.237C119.525,95.181,127.706,87,137.762,87z"/>
	<path d="M57.298,138.065c0.002,0.001,0.004,0.001,0.006,0.002l32.524,11.202l18.513,53.75c1.07,3.107,3.978,5.059,7.091,5.059
		c0.81,0,1.634-0.132,2.442-0.411c3.916-1.349,5.998-5.617,4.649-9.534l-14.695-42.666l52.218,17.984l10.183,29.566
		c1.07,3.107,3.978,5.059,7.091,5.059c0.81,0,1.634-0.132,2.442-0.411c3.916-1.349,5.998-5.617,4.648-9.534l-6.365-18.482
		l49.887,17.182c0.809,0.278,1.633,0.411,2.442,0.411c3.112,0,6.02-1.952,7.091-5.059c1.35-3.917-0.732-8.185-4.648-9.534
		L69.274,126.324l17.241-50.056c1.35-3.917-0.732-8.185-4.648-9.534c-3.918-1.349-8.185,0.733-9.533,4.649l-19.683,57.144
		c0,0.001-0.001,0.002-0.001,0.003c-0.253,0.734-0.386,1.481-0.408,2.219C52.146,133.946,54.117,136.969,57.298,138.065z"/>
	<path d="M92.289,63.256c17.439,0,31.628-14.188,31.628-31.628C123.916,14.188,109.728,0,92.289,0
		C74.849,0,60.661,14.188,60.661,31.628C60.661,49.068,74.849,63.256,92.289,63.256z M92.289,15c9.169,0,16.628,7.459,16.628,16.628
		c0,9.169-7.459,16.628-16.628,16.628c-9.169,0-16.628-7.459-16.628-16.628C75.661,22.459,83.12,15,92.289,15z"/>
</g>
</svg>